<mxfile host="app.diagrams.net" modified="2021-05-29T06:17:50.964Z" agent="5.0 (Windows NT 10.0; Win64; x64) AppleWebKit/537.36 (KHTML, like Gecko) Chrome/76.0.3795.5 Safari/537.36" etag="vil3wj6260IHG89ue_Wt" version="13.8.6" type="github">
  <diagram id="afJ1SDbj-xvxAOhlDYZ4" name="第 1 页">
    <mxGraphModel dx="1024" dy="531" grid="1" gridSize="10" guides="1" tooltips="1" connect="1" arrows="1" fold="1" page="1" pageScale="1" pageWidth="827" pageHeight="1169" math="0" shadow="0">
      <root>
        <mxCell id="0" />
        <mxCell id="1" parent="0" />
        <mxCell id="VuKaa77P6fHyx5gGryVT-3" value="" style="edgeStyle=orthogonalEdgeStyle;rounded=0;orthogonalLoop=1;jettySize=auto;html=1;" edge="1" parent="1" source="VuKaa77P6fHyx5gGryVT-1" target="VuKaa77P6fHyx5gGryVT-2">
          <mxGeometry relative="1" as="geometry" />
        </mxCell>
        <mxCell id="VuKaa77P6fHyx5gGryVT-1" value="" style="rounded=0;whiteSpace=wrap;html=1;" vertex="1" parent="1">
          <mxGeometry x="160" y="200" width="120" height="60" as="geometry" />
        </mxCell>
        <mxCell id="VuKaa77P6fHyx5gGryVT-5" value="" style="edgeStyle=orthogonalEdgeStyle;rounded=0;orthogonalLoop=1;jettySize=auto;html=1;" edge="1" parent="1" source="VuKaa77P6fHyx5gGryVT-2" target="VuKaa77P6fHyx5gGryVT-4">
          <mxGeometry relative="1" as="geometry" />
        </mxCell>
        <mxCell id="VuKaa77P6fHyx5gGryVT-2" value="" style="rounded=0;whiteSpace=wrap;html=1;" vertex="1" parent="1">
          <mxGeometry x="360" y="200" width="120" height="60" as="geometry" />
        </mxCell>
        <mxCell id="VuKaa77P6fHyx5gGryVT-7" value="" style="edgeStyle=orthogonalEdgeStyle;rounded=0;orthogonalLoop=1;jettySize=auto;html=1;" edge="1" parent="1" source="VuKaa77P6fHyx5gGryVT-4" target="VuKaa77P6fHyx5gGryVT-6">
          <mxGeometry relative="1" as="geometry" />
        </mxCell>
        <mxCell id="VuKaa77P6fHyx5gGryVT-4" value="" style="rounded=0;whiteSpace=wrap;html=1;" vertex="1" parent="1">
          <mxGeometry x="560" y="200" width="120" height="60" as="geometry" />
        </mxCell>
        <mxCell id="VuKaa77P6fHyx5gGryVT-9" value="" style="edgeStyle=orthogonalEdgeStyle;rounded=0;orthogonalLoop=1;jettySize=auto;html=1;" edge="1" parent="1" source="VuKaa77P6fHyx5gGryVT-6" target="VuKaa77P6fHyx5gGryVT-8">
          <mxGeometry relative="1" as="geometry" />
        </mxCell>
        <mxCell id="VuKaa77P6fHyx5gGryVT-6" value="" style="ellipse;whiteSpace=wrap;html=1;rounded=0;" vertex="1" parent="1">
          <mxGeometry x="760" y="190" width="120" height="80" as="geometry" />
        </mxCell>
        <mxCell id="VuKaa77P6fHyx5gGryVT-8" value="" style="whiteSpace=wrap;html=1;rounded=0;" vertex="1" parent="1">
          <mxGeometry x="960" y="200" width="120" height="60" as="geometry" />
        </mxCell>
        <mxCell id="VuKaa77P6fHyx5gGryVT-10" value="" style="rhombus;whiteSpace=wrap;html=1;" vertex="1" parent="1">
          <mxGeometry x="250" y="110" width="230" height="90" as="geometry" />
        </mxCell>
      </root>
    </mxGraphModel>
  </diagram>
</mxfile>
